<?xml version="1.0" encoding="UTF-8" standalone="no"?>
<!DOCTYPE svg PUBLIC "-//W3C//DTD SVG 1.1//EN" "http://www.w3.org/Graphics/SVG/1.1/DTD/svg11.dtd">
<svg width="100%" height="100%" viewBox="0 0 512 512" version="1.1" xmlns="http://www.w3.org/2000/svg" xmlns:xlink="http://www.w3.org/1999/xlink" xml:space="preserve" xmlns:serif="http://www.serif.com/" style="fill-rule:evenodd;clip-rule:evenodd;stroke-linejoin:round;stroke-miterlimit:2;">
    <g>
        <g>
            <path d="M256,0C171.847,0 103.385,68.463 103.385,152.615C103.385,236.767 171.847,305.231 256,305.231C266.098,305.231 275.966,304.236 285.521,302.355C217.699,288.992 165.863,230.552 162.629,159.652C162.53,158.96 162.461,158.259 162.461,157.539C162.461,156.725 162.472,155.912 162.492,155.103C162.479,154.275 162.461,153.448 162.461,152.616C162.461,151.518 162.59,150.451 162.817,149.421C166.946,101.631 207.157,64.001 255.999,64.001C307.568,64.001 349.524,105.949 349.537,157.515C349.537,157.524 349.538,157.532 349.538,157.541C349.538,187.402 325.244,211.696 295.383,211.696C265.523,211.696 241.229,187.403 241.229,157.541C241.229,149.384 247.842,142.772 255.998,142.772C264.154,142.772 270.767,149.385 270.767,157.541C270.767,171.115 281.809,182.157 295.382,182.157C308.951,182.157 319.991,171.12 319.998,157.553C319.998,157.549 319.997,157.544 319.997,157.54C319.997,122.25 291.287,93.54 255.997,93.54C221.273,93.54 192.939,121.343 192.039,155.854C193.762,222.228 248.292,275.693 315.074,275.693C327.054,275.693 338.888,273.979 350.247,270.598C351.292,270.288 352.341,270.107 353.385,270.03C387.104,242.013 408.613,199.781 408.613,152.617C408.615,68.463 340.153,0 256,0Z" style="fill:rgb(234,28,44);fill-rule:nonzero;"/>
        </g>
    </g>
    <g>
        <g>
            <path d="M256,334.769C241.311,334.769 227.026,333.009 213.334,329.71L213.334,469.333C213.334,492.86 232.474,512 256,512C279.526,512 298.666,492.86 298.666,469.334L298.666,329.71C284.974,333.009 270.689,334.769 256,334.769Z" style="fill:rgb(234,28,44);fill-rule:nonzero;"/>
        </g>
    </g>
</svg>
